<svg width="24" height="25" viewBox="0 0 24 25" fill="none" xmlns="http://www.w3.org/2000/svg">
<path d="M17.8118 15.8469L17.4703 14.2234L17.1288 15.8469C17.0164 16.3809 16.7512 16.8707 16.3653 17.2566C15.9794 17.6425 15.4896 17.9078 14.9555 18.0201L13.332 18.3617L14.9555 18.7032C15.4896 18.8155 15.9794 19.0808 16.3653 19.4667C16.7512 19.8526 17.0164 20.3424 17.1288 20.8764L17.4703 22.4999L17.8118 20.8764C17.9242 20.3424 18.1894 19.8526 18.5753 19.4667C18.9612 19.0808 19.451 18.8155 19.9851 18.7032L21.6086 18.3617L19.9851 18.0201C19.451 17.9078 18.9612 17.6425 18.5753 17.2566C18.1894 16.8707 17.9242 16.3809 17.8118 15.8469Z" fill="white"/>
<path d="M11.3268 19.0608C6.89891 19.0608 2.39147 14.9067 2.39148 10.6874C2.39148 9.69393 2.39148 8.6687 2.39148 7.74148C2.39148 5.89115 3.89147 4.39179 5.7418 4.39179H11.3268M11.3268 4.39179H16.9118C18.7622 4.39179 20.2621 5.89115 20.2621 7.74148C20.2621 8.6687 20.2621 9.69393 20.2621 10.6874C20.2621 11.4955 20.1212 12.2796 19.8647 13.0229M11.3268 4.39179V2.5" stroke="white" stroke-width="1.5" stroke-linecap="round"/>
<ellipse cx="7.83798" cy="10.7811" rx="1.39596" ry="1.39596" fill="white"/>
<ellipse cx="14.8143" cy="10.7811" rx="1.39596" ry="1.39596" fill="white"/>
</svg>
