<svg width="16" height="17" viewBox="0 0 16 17" fill="none" xmlns="http://www.w3.org/2000/svg">
<path d="M5.6 2.5H3.06667C2.6933 2.5 2.50661 2.5 2.36401 2.57266C2.23856 2.63658 2.13658 2.73856 2.07266 2.86401C2 3.00661 2 3.1933 2 3.56667V4.76667C2 5.14004 2 5.32672 2.07266 5.46933C2.13658 5.59477 2.23856 5.69676 2.36401 5.76067C2.50661 5.83333 2.6933 5.83333 3.06667 5.83333H5.6C5.97337 5.83333 6.16005 5.83333 6.30266 5.76067C6.4281 5.69676 6.53009 5.59477 6.594 5.46933C6.66667 5.32672 6.66667 5.14004 6.66667 4.76667V3.56667C6.66667 3.1933 6.66667 3.00661 6.594 2.86401C6.53009 2.73856 6.4281 2.63658 6.30266 2.57266C6.16005 2.5 5.97337 2.5 5.6 2.5Z" stroke="#212121" stroke-width="1.2" stroke-linecap="round" stroke-linejoin="round"/>
<path d="M12.9333 2.5H10.4C10.0266 2.5 9.83995 2.5 9.69734 2.57266C9.5719 2.63658 9.46991 2.73856 9.406 2.86401C9.33333 3.00661 9.33333 3.1933 9.33333 3.56667V7.43333C9.33333 7.8067 9.33333 7.99339 9.406 8.13599C9.46991 8.26144 9.5719 8.36342 9.69734 8.42734C9.83995 8.5 10.0266 8.5 10.4 8.5H12.9333C13.3067 8.5 13.4934 8.5 13.636 8.42734C13.7614 8.36342 13.8634 8.26144 13.9273 8.13599C14 7.99339 14 7.8067 14 7.43333V3.56667C14 3.1933 14 3.00661 13.9273 2.86401C13.8634 2.73856 13.7614 2.63658 13.636 2.57266C13.4934 2.5 13.3067 2.5 12.9333 2.5Z" stroke="#212121" stroke-width="1.2" stroke-linecap="round" stroke-linejoin="round"/>
<path d="M12.9333 11.1667H10.4C10.0266 11.1667 9.83995 11.1667 9.69734 11.2393C9.5719 11.3032 9.46991 11.4052 9.406 11.5307C9.33333 11.6733 9.33333 11.86 9.33333 12.2333V13.4333C9.33333 13.8067 9.33333 13.9934 9.406 14.136C9.46991 14.2614 9.5719 14.3634 9.69734 14.4273C9.83995 14.5 10.0266 14.5 10.4 14.5H12.9333C13.3067 14.5 13.4934 14.5 13.636 14.4273C13.7614 14.3634 13.8634 14.2614 13.9273 14.136C14 13.9934 14 13.8067 14 13.4333V12.2333C14 11.86 14 11.6733 13.9273 11.5307C13.8634 11.4052 13.7614 11.3032 13.636 11.2393C13.4934 11.1667 13.3067 11.1667 12.9333 11.1667Z" stroke="#212121" stroke-width="1.2" stroke-linecap="round" stroke-linejoin="round"/>
<path d="M5.6 8.5H3.06667C2.6933 8.5 2.50661 8.5 2.36401 8.57266C2.23856 8.63658 2.13658 8.73856 2.07266 8.86401C2 9.00661 2 9.1933 2 9.56667V13.4333C2 13.8067 2 13.9934 2.07266 14.136C2.13658 14.2614 2.23856 14.3634 2.36401 14.4273C2.50661 14.5 2.6933 14.5 3.06667 14.5H5.6C5.97337 14.5 6.16005 14.5 6.30266 14.4273C6.4281 14.3634 6.53009 14.2614 6.594 14.136C6.66667 13.9934 6.66667 13.8067 6.66667 13.4333V9.56667C6.66667 9.1933 6.66667 9.00661 6.594 8.86401C6.53009 8.73856 6.4281 8.63658 6.30266 8.57266C6.16005 8.5 5.97337 8.5 5.6 8.5Z" stroke="#212121" stroke-width="1.2" stroke-linecap="round" stroke-linejoin="round"/>
</svg>
