<svg width="20" height="21" viewBox="0 0 20 21" fill="none" xmlns="http://www.w3.org/2000/svg">
<path d="M7.79514 18C8.38275 18.5186 9.15462 18.8333 10 18.8333C10.8454 18.8333 11.6172 18.5186 12.2048 18M15 7.16663C15 5.84054 14.4732 4.56877 13.5355 3.63109C12.5978 2.69341 11.3261 2.16663 10 2.16663C8.67391 2.16663 7.40214 2.69341 6.46446 3.63109C5.52678 4.56877 5 5.84054 5 7.16663C5 9.74178 4.35039 11.5049 3.62472 12.6711C3.0126 13.6549 2.70654 14.1467 2.71777 14.2839C2.73019 14.4359 2.76238 14.4938 2.88481 14.5846C2.99538 14.6666 3.49382 14.6666 4.49071 14.6666H15.5093C16.5062 14.6666 17.0046 14.6666 17.1152 14.5846C17.2376 14.4938 17.2698 14.4359 17.2822 14.2839C17.2934 14.1467 16.9874 13.6549 16.3753 12.6711C15.6496 11.5049 15 9.74178 15 7.16663Z" stroke="#979797" stroke-width="1.25" stroke-linecap="round" stroke-linejoin="round"/>
</svg>
