<svg width="16" height="5" viewBox="0 0 16 5" fill="none" xmlns="http://www.w3.org/2000/svg">
<path d="M8.00001 3.33329C8.46025 3.33329 8.83334 2.9602 8.83334 2.49996C8.83334 2.03972 8.46025 1.66663 8.00001 1.66663C7.53977 1.66663 7.16668 2.03972 7.16668 2.49996C7.16668 2.9602 7.53977 3.33329 8.00001 3.33329Z" stroke="#979797" stroke-width="1.5" stroke-linecap="round" stroke-linejoin="round"/>
<path d="M13.8333 3.33329C14.2936 3.33329 14.6667 2.9602 14.6667 2.49996C14.6667 2.03972 14.2936 1.66663 13.8333 1.66663C13.3731 1.66663 13 2.03972 13 2.49996C13 2.9602 13.3731 3.33329 13.8333 3.33329Z" stroke="#979797" stroke-width="1.5" stroke-linecap="round" stroke-linejoin="round"/>
<path d="M2.16668 3.33329C2.62691 3.33329 3.00001 2.9602 3.00001 2.49996C3.00001 2.03972 2.62691 1.66663 2.16668 1.66663C1.70644 1.66663 1.33334 2.03972 1.33334 2.49996C1.33334 2.9602 1.70644 3.33329 2.16668 3.33329Z" stroke="#979797" stroke-width="1.5" stroke-linecap="round" stroke-linejoin="round"/>
</svg>
