<svg width="16" height="13" viewBox="0 0 16 13" fill="none" xmlns="http://www.w3.org/2000/svg">
<path d="M10.6667 3.16667C10.6667 2.54669 10.6667 2.2367 10.5986 1.98236C10.4136 1.29218 9.87453 0.753083 9.18435 0.568148C8.93001 0.5 8.62002 0.5 8.00004 0.5C7.38006 0.5 7.07007 0.5 6.81574 0.568148C6.12555 0.753083 5.58646 1.29218 5.40152 1.98236C5.33337 2.2367 5.33337 2.54669 5.33337 3.16667M3.46671 12.5H12.5334C13.2801 12.5 13.6535 12.5 13.9387 12.3547C14.1896 12.2268 14.3936 12.0229 14.5214 11.772C14.6667 11.4868 14.6667 11.1134 14.6667 10.3667V5.3C14.6667 4.55326 14.6667 4.1799 14.5214 3.89468C14.3936 3.6438 14.1896 3.43982 13.9387 3.31199C13.6535 3.16667 13.2801 3.16667 12.5334 3.16667H3.46671C2.71997 3.16667 2.3466 3.16667 2.06139 3.31199C1.8105 3.43982 1.60653 3.6438 1.4787 3.89468C1.33337 4.1799 1.33337 4.55326 1.33337 5.3V10.3667C1.33337 11.1134 1.33337 11.4868 1.4787 11.772C1.60653 12.0229 1.8105 12.2268 2.06139 12.3547C2.3466 12.5 2.71997 12.5 3.46671 12.5Z" stroke="#646464" stroke-linecap="round" stroke-linejoin="round"/>
</svg>
